<?xml version="1.0" standalone="no"?>
<!DOCTYPE svg PUBLIC "-//W3C//DTD SVG 20010904//EN"
 "http://www.w3.org/TR/2001/REC-SVG-20010904/DTD/svg10.dtd">
<svg version="1.0" xmlns="http://www.w3.org/2000/svg"
 width="700.000000pt" height="700.000000pt" viewBox="0 0 700.000000 700.000000"
 preserveAspectRatio="xMidYMid meet">
<metadata>
Created by potrace 1.14, written by Peter Selinger 2001-2017
</metadata>
<g transform="translate(0.000000,700.000000) scale(0.100000,-0.100000)"
fill="#000000" stroke="none">
<path d="M3305 6410 c-862 -64 -1623 -479 -2141 -1166 -550 -730 -721 -1691
-459 -2576 291 -981 1100 -1754 2090 -1997 259 -63 437 -84 710 -84 384 1 719
64 1064 200 911 359 1590 1166 1786 2121 79 383 79 801 0 1184 -146 711 -564
1352 -1160 1780 -399 286 -858 464 -1345 522 -161 20 -405 27 -545 16z m-285
-822 l190 -133 -1 -205 0 -205 -581 -406 -582 -406 -195 65 c-108 36 -197 65
-198 66 -1 1 -27 88 -58 195 -66 223 -70 189 45 343 216 287 509 530 835 690
150 73 322 140 343 133 7 -3 98 -65 202 -137z m1330 85 c418 -163 798 -463
1055 -832 l58 -83 -20 -72 c-12 -39 -38 -127 -58 -196 l-36 -125 -187 -62
c-103 -35 -192 -64 -198 -65 -7 -2 -273 179 -593 402 l-580 405 0 205 0 205
197 138 c162 114 201 137 222 132 13 -4 76 -27 140 -52z m11 -2462 l-198 -586
-663 0 -663 0 -194 580 c-106 318 -191 585 -189 591 2 6 239 176 526 377 l521
366 529 -371 529 -370 -198 -587z m-2678 528 c105 -36 181 -68 186 -78 4 -9
102 -294 216 -633 l207 -617 -106 -188 c-58 -103 -110 -194 -114 -201 -6 -8
-63 -18 -168 -27 -87 -8 -162 -15 -166 -15 -10 0 -125 147 -183 235 -251 379
-393 849 -383 1264 l3 124 140 104 c110 81 145 102 165 99 14 -3 105 -33 203
-67z m4002 -35 l145 -106 0 -124 c0 -435 -139 -889 -382 -1253 -62 -93 -177
-241 -186 -241 -24 1 -325 30 -328 32 -14 16 -224 390 -224 401 0 8 95 295
210 638 l211 624 192 66 c106 37 197 67 204 68 7 0 78 -47 158 -105z m-1344
-1825 c91 -160 92 -161 77 -193 -8 -17 -54 -115 -102 -217 l-88 -185 -101 -28
c-56 -16 -160 -40 -232 -54 -120 -24 -151 -26 -395 -26 -244 0 -275 2 -395 26
-72 14 -177 38 -232 54 l-102 28 -101 218 -100 219 92 159 92 160 747 0 748 0
92 -161z"/>
</g>
</svg>
